<?xml version="1.0" standalone="no"?>
<!DOCTYPE svg PUBLIC "-//W3C//DTD SVG 20010904//EN"
 "http://www.w3.org/TR/2001/REC-SVG-20010904/DTD/svg10.dtd">
<svg version="1.0" xmlns="http://www.w3.org/2000/svg"
 width="500.000000pt" height="500.000000pt" viewBox="0 0 500.000000 500.000000"
 preserveAspectRatio="xMidYMid meet">
<metadata>
Created by potrace 1.14, written by Peter Selinger 2001-2017
</metadata>
<g transform="translate(0.000000,500.000000) scale(0.100000,-0.100000)"
fill="#000000" stroke="none">
<path d="M2430 3880 c-190 -20 -317 -61 -449 -148 -176 -114 -221 -145 -221
-153 0 -4 -26 -35 -59 -68 -32 -34 -72 -87 -89 -120 -45 -84 -52 -88 -120 -72
-77 18 -307 21 -352 5 -19 -7 -55 -15 -80 -19 -147 -20 -355 -122 -476 -233
-22 -20 -60 -52 -83 -71 -23 -18 -50 -50 -59 -70 -9 -20 -30 -54 -47 -75 -30
-40 -63 -93 -108 -176 -40 -72 -76 -223 -83 -345 -15 -249 43 -444 178 -609
29 -35 61 -76 71 -90 10 -15 35 -37 55 -50 20 -13 56 -42 79 -64 79 -77 135
-103 348 -162 49 -14 109 -23 155 -23 116 0 280 19 330 38 57 21 169 45 186
38 6 -2 45 6 86 18 40 12 98 23 128 25 54 2 86 8 239 41 42 8 133 17 206 18
73 1 137 5 144 9 26 16 4 104 -38 149 -14 16 -62 50 -106 77 -118 71 -168 136
-199 257 -29 110 -22 236 26 518 11 66 24 145 29 175 26 156 54 230 88 230 39
0 42 -20 27 -161 -8 -74 -12 -147 -9 -162 6 -32 37 -57 70 -57 41 0 51 34 58
195 8 156 16 185 56 185 42 0 49 -24 49 -176 0 -172 11 -203 67 -204 43 0 54
45 51 200 -2 124 0 141 16 159 22 25 35 26 62 7 17 -13 20 -31 24 -170 5 -132
9 -158 24 -175 24 -27 68 -27 91 -1 16 18 17 32 10 147 -12 192 -12 194 7 207
14 9 23 6 42 -14 19 -19 30 -49 45 -130 12 -58 25 -127 31 -155 54 -263 70
-539 37 -646 -27 -85 -82 -157 -157 -205 -156 -100 -179 -125 -182 -199 l-3
-50 135 -8 c74 -4 145 -12 158 -17 13 -6 46 -10 75 -10 29 0 75 -7 102 -16 28
-9 82 -17 121 -19 39 -2 99 -13 132 -24 34 -12 80 -21 102 -21 38 0 150 -22
280 -55 82 -21 172 -26 253 -14 40 5 92 12 116 15 25 3 56 11 70 18 14 8 53
21 86 31 85 24 272 150 320 215 20 28 65 85 101 127 49 59 71 97 98 167 45
119 56 192 56 366 0 147 -11 242 -36 295 -7 17 -27 64 -42 107 -30 78 -52 112
-133 208 -25 30 -53 69 -62 86 -20 38 -64 77 -192 165 -111 77 -189 118 -244
126 -20 3 -53 14 -73 24 -57 29 -335 52 -419 35 -141 -29 -146 -29 -154 1 -8
32 -57 105 -88 130 -12 10 -46 48 -75 86 -30 37 -57 67 -61 67 -5 0 -39 23
-77 51 -38 28 -95 64 -127 80 -32 15 -67 35 -80 44 -12 8 -32 15 -44 15 -12 0
-56 14 -98 30 -44 17 -94 30 -120 30 -24 0 -54 4 -67 9 -39 15 -128 19 -208
11z"/>
<path d="M2312 2348 c-28 -28 -6 -68 39 -68 40 0 55 24 35 55 -18 27 -54 33
-74 13z"/>
<path d="M2658 2349 c-35 -20 -15 -69 27 -69 43 0 62 50 26 70 -24 12 -31 12
-53 -1z"/>
<path d="M2465 2245 c-14 -13 -25 -29 -25 -35 0 -18 30 -23 55 -10 29 16 50 3
59 -35 7 -27 25 -32 44 -13 21 21 13 58 -17 89 -38 37 -82 39 -116 4z"/>
<path d="M2616 2065 c-3 -8 -3 -28 0 -43 5 -26 2 -29 -35 -41 -48 -14 -103 -3
-145 30 -30 24 -59 22 -64 -4 -4 -21 14 -37 73 -69 48 -25 124 -27 178 -4 28
11 44 13 57 6 28 -15 57 -12 64 6 7 19 -10 44 -30 44 -18 0 -44 40 -44 67 0
18 -6 23 -24 23 -13 0 -26 -7 -30 -15z"/>
</g>
</svg>
